<svg width="20" height="20" viewBox="0 0 20 20" fill="none" xmlns="http://www.w3.org/2000/svg">
<path d="M11.7282 3.23784C12.3492 2.56503 12.6597 2.22862 12.9896 2.0324C13.7857 1.55892 14.766 1.5442 15.5754 1.99356C15.9108 2.17979 16.2309 2.50673 16.8709 3.16059C17.511 3.81446 17.8311 4.1414 18.0134 4.48406C18.4533 5.31089 18.4388 6.31229 17.9754 7.12555C17.7833 7.46259 17.454 7.77977 16.7953 8.41413L8.95894 15.9619C7.71081 17.164 7.08675 17.7651 6.3068 18.0697C5.52685 18.3744 4.66942 18.352 2.95455 18.3071L2.72123 18.301C2.19917 18.2874 1.93814 18.2805 1.7864 18.1083C1.63467 17.9361 1.65538 17.6702 1.69681 17.1384L1.71931 16.8497C1.83592 15.3529 1.89423 14.6045 2.1865 13.9318C2.47878 13.2591 2.98294 12.7128 3.99127 11.6204L11.7282 3.23784Z" stroke="#141B34" stroke-width="1.5" stroke-linejoin="round"/>
<path d="M10.8333 3.33337L16.6666 9.16671" stroke="#141B34" stroke-width="1.5" stroke-linejoin="round"/>
<path d="M11.6667 18.3334L18.3334 18.3334" stroke="#141B34" stroke-width="1.5" stroke-linecap="round" stroke-linejoin="round"/>
</svg>
