<svg width="40" height="40" viewBox="0 0 40 40" fill="none" xmlns="http://www.w3.org/2000/svg">
<rect width="40" height="40" rx="12" fill="#642FF4"/>
<path d="M21.3481 27.8061C20.9867 28.1445 20.5037 28.3337 20.0009 28.3337C19.4982 28.3337 19.0152 28.1445 18.6537 27.8061C15.3442 24.6886 10.909 21.2061 13.0719 16.15C14.2414 13.4163 17.0486 11.667 20.0009 11.667C22.9532 11.667 25.7605 13.4163 26.93 16.15C29.0902 21.1997 24.6658 24.6994 21.3481 27.8061Z" stroke="white" stroke-width="1.5"/>
<path d="M22.9163 19.1667C22.9163 20.7775 21.6105 22.0833 19.9997 22.0833C18.3888 22.0833 17.083 20.7775 17.083 19.1667C17.083 17.5558 18.3888 16.25 19.9997 16.25C21.6105 16.25 22.9163 17.5558 22.9163 19.1667Z" stroke="white" stroke-width="1.5"/>
</svg>
